# xmcd
#
# Track frame offsets:
#	150
#	20930
#	38350
#	70853
#
# Disc length: 2639 seconds
#
# Revision: 0
# Processed by: cddbd v1.4PL0 Copyright (c) Steve Scherf et al.
# Submitted via: EasyCDDAExtractor 4.6.0.1
#
DISCID=2c0a4d04
DTITLE=Boyz II Men - the Color of Love
DYEAR=2002
DGENRE=R&B
TTITLE0=the color of love
TTITLE1=woman don't cry
TTITLE2=you're my baby
TTITLE3=vidéo
EXTD=
EXTT0=
EXTT1=
EXTT2=
EXTT3=
PLAYORDER=
